<?xml version="1.0" standalone="no"?>
<!DOCTYPE svg PUBLIC "-//W3C//DTD SVG 20010904//EN"
 "http://www.w3.org/TR/2001/REC-SVG-20010904/DTD/svg10.dtd">
<svg version="1.0" xmlns="http://www.w3.org/2000/svg"
 width="1200.000000pt" height="1200.000000pt" viewBox="0 0 1200.000000 1200.000000"
 preserveAspectRatio="xMidYMid meet">

<g transform="translate(0.000000,1200.000000) scale(0.100000,-0.100000)"
fill="#000000" stroke="none">
<path d="M5520 11683 l-465 -3 -482 -482 c-321 -321 -478 -485 -470 -490 7 -4
78 -8 158 -8 l146 0 7 -31 c3 -17 6 -160 6 -318 l1 -286 -277 -270 c-153 -148
-397 -389 -543 -535 l-266 -265 95 -6 c126 -9 4913 -11 5058 -2 61 3 112 10
112 15 0 6 -241 252 -535 548 l-535 539 0 274 c0 151 3 289 6 306 l7 31 163 0
c89 0 165 4 168 8 4 7 -408 422 -419 422 -2 0 -131 126 -287 280 l-283 279
-450 -2 c-247 -1 -659 -3 -915 -4z m855 -404 c182 -181 344 -343 362 -361 18
-18 42 -43 55 -56 70 -68 118 -122 118 -131 0 -8 -279 -11 -930 -11 -511 0
-930 3 -930 6 0 15 263 284 583 596 l347 339 33 -26 c17 -15 181 -175 362
-356z m-320 -719 c166 -16 291 -72 412 -184 70 -65 163 -186 163 -211 0 -5 6
-16 14 -24 8 -9 24 -56 36 -105 30 -120 25 -327 -10 -421 -25 -69 -72 -156
-109 -202 -14 -18 -36 -46 -49 -62 -53 -70 -240 -175 -366 -206 -102 -26 -295
-17 -391 18 -197 70 -319 176 -422 367 -57 106 -77 202 -71 343 9 195 66 330
202 474 90 96 206 162 349 198 105 27 119 28 242 15z"/>
<path d="M4399 8853 c-358 -3 -408 -5 -420 -19 -27 -32 -25 -6232 2 -6275 7
-12 116 -14 617 -17 335 -1 626 1 648 6 l39 8 6 2199 c4 1684 9 2219 18 2279
27 170 136 420 251 573 59 79 298 323 317 323 6 0 26 13 44 30 19 16 42 30 53
30 50 0 356 -287 441 -415 56 -85 131 -229 165 -317 12 -29 31 -102 44 -163
l24 -110 7 -2210 c4 -1377 11 -2214 16 -2220 7 -6 236 -10 650 -10 513 0 641
3 648 13 4 7 11 283 14 614 9 779 9 4312 0 5072 -6 564 -7 587 -25 597 -20 11
-2704 20 -3559 12z"/>
<path d="M3032 2980 c-56 -34 -75 -119 -33 -145 17 -10 13 -39 -8 -52 -11 -7
-25 -29 -30 -50 -9 -30 -7 -44 7 -73 23 -46 97 -85 146 -76 45 9 106 75 106
115 0 39 -19 88 -36 95 -18 7 -18 30 1 46 9 7 15 29 15 54 0 47 -23 76 -73 95
-40 15 -57 14 -95 -9z m89 -46 c25 -13 30 -20 27 -47 -4 -44 -49 -67 -87 -46
-32 18 -38 52 -17 85 19 28 36 30 77 8z m20 -173 c26 -21 31 -84 7 -107 -25
-26 -71 -27 -101 -4 -22 18 -27 29 -27 65 0 31 5 47 18 54 27 16 78 13 103 -8z"/>
<path d="M3671 2985 c-19 -7 -42 -22 -52 -34 -34 -42 -52 -206 -28 -268 16
-42 69 -92 105 -99 38 -7 99 19 120 51 42 64 38 129 -11 181 -27 28 -39 34
-75 34 -27 0 -51 -7 -62 -17 -48 -43 -44 43 4 94 30 32 62 29 96 -8 32 -34 62
-34 62 -1 0 24 -25 47 -73 67 -41 17 -40 17 -86 0z m90 -204 c20 -20 29 -39
29 -61 0 -35 -46 -90 -75 -90 -30 0 -56 21 -71 56 -13 30 -13 38 1 64 16 31
51 60 73 60 7 0 27 -13 43 -29z"/>
<path d="M2745 2939 c-33 -27 -61 -55 -63 -63 -5 -23 15 -28 48 -11 30 15 30
15 40 -10 6 -15 10 -77 10 -140 0 -115 7 -138 35 -115 12 10 15 46 15 185 0
164 -4 206 -19 204 -3 0 -33 -22 -66 -50z"/>
<path d="M3315 2968 c-28 -87 -34 -185 -11 -194 8 -3 28 4 44 16 23 17 37 20
66 15 64 -12 88 -85 45 -139 -17 -21 -29 -26 -64 -26 -39 0 -46 4 -60 30 -17
32 -49 40 -59 14 -4 -9 9 -31 33 -57 36 -38 44 -42 84 -41 90 2 151 67 143
152 -7 75 -78 128 -156 116 -45 -7 -48 -2 -26 51 15 34 17 35 70 35 64 0 86 7
86 26 0 19 -188 20 -195 2z"/>
<path d="M8150 2935 c-33 -34 -34 -37 -21 -68 8 -17 16 -54 19 -82 2 -27 10
-58 17 -70 8 -11 17 -37 20 -58 9 -47 22 -55 48 -28 21 20 21 21 2 58 -36 70
-36 68 6 125 45 59 47 93 7 135 -30 32 -59 29 -98 -12z m77 -41 c7 -19 -20
-49 -36 -40 -6 4 -11 18 -11 32 0 17 5 24 20 24 11 0 23 -7 27 -16z"/>
<path d="M8908 2953 c-55 -8 -87 -85 -51 -125 13 -15 14 -23 5 -44 -30 -65 4
-122 78 -131 31 -3 51 -13 66 -30 22 -26 44 -24 44 3 0 19 -40 114 -48 114 -3
0 -19 -12 -34 -27 -23 -22 -32 -25 -46 -17 -10 7 -17 24 -17 40 0 24 7 32 38
47 38 18 49 37 21 37 -23 0 -74 39 -74 56 0 18 40 34 86 34 19 0 34 4 34 9 0
23 -53 41 -102 34z"/>
<path d="M8387 2852 c-89 -89 -97 -101 -97 -136 0 -87 116 -141 175 -81 40 39
25 70 -20 41 -13 -9 -35 -16 -49 -16 -25 0 -56 23 -56 41 0 32 36 83 102 145
61 57 74 73 66 87 -5 9 -12 17 -16 17 -4 0 -51 -44 -105 -98z"/>
<path d="M8573 2914 c-29 -45 -29 -72 0 -115 33 -49 67 -63 117 -48 22 7 43 9
47 6 13 -13 4 -69 -17 -103 -12 -19 -19 -38 -16 -42 12 -12 59 22 80 57 18 31
18 36 4 81 -13 41 -13 50 -1 74 8 15 12 35 8 45 -8 27 -50 43 -81 31 -24 -10
-26 -14 -22 -55 l6 -45 -39 0 c-28 0 -41 5 -49 19 -16 30 -12 59 11 82 16 16
18 23 8 35 -18 22 -32 16 -56 -22z"/>
<path d="M9936 2462 c-18 -34 -11 -47 35 -66 43 -18 159 -102 159 -116 0 -7
-143 -10 -409 -10 l-409 0 -7 30 c-4 17 -31 56 -60 88 -44 48 -63 60 -114 75
-52 16 -70 17 -116 7 -90 -19 -135 -72 -135 -159 0 -37 -3 -41 -32 -49 -28 -7
-33 -13 -33 -38 0 -24 6 -31 35 -40 l35 -12 5 -153 c3 -85 9 -160 13 -166 13
-21 75 -16 87 6 5 11 10 82 10 158 0 76 4 144 8 151 7 9 58 12 223 10 l214 -3
0 -25 0 -25 -160 -5 c-172 -5 -189 -10 -219 -61 -25 -42 -20 -75 18 -116 31
-34 39 -37 98 -41 107 -7 176 44 162 118 l-7 31 54 -3 54 -3 3 -80 c3 -120 5
-125 50 -125 52 0 62 14 62 84 0 34 3 105 7 159 l6 97 173 0 172 0 7 -30 c9
-42 1 -50 -42 -34 -50 18 -145 17 -188 0 -67 -29 -95 -118 -56 -182 42 -69
156 -90 264 -48 12 4 20 -2 27 -21 9 -23 14 -26 52 -23 l43 3 3 168 2 167 49
0 48 0 6 -67 c4 -38 7 -114 7 -170 l0 -103 50 0 50 0 0 73 c0 39 3 116 7 170
l6 98 26 -3 c18 -2 27 -10 29 -26 2 -13 19 -39 39 -58 l35 -36 -18 -33 c-31
-57 7 -112 98 -143 33 -12 45 -10 107 11 75 27 81 25 81 -29 0 -22 4 -24 50
-24 l50 0 0 118 c0 64 3 141 6 170 l7 52 208 0 209 0 0 -25 0 -25 -112 -1
c-185 -1 -234 -25 -245 -121 -6 -56 24 -121 67 -143 41 -21 115 -31 125 -16
14 23 -4 60 -33 67 -15 4 -33 11 -39 17 -22 16 -15 66 12 93 24 23 30 25 122
22 l98 -3 -3 -82 c-5 -111 0 -123 48 -123 29 0 42 5 50 19 5 11 10 86 10 170
l0 151 25 0 c28 0 46 27 38 58 l-5 22 -383 0 -383 0 -6 -25 c-6 -24 -26 -36
-26 -15 0 14 -55 40 -87 40 -46 0 -102 -19 -123 -42 l-20 -22 -11 32 c-9 28
-16 32 -45 32 -37 0 -46 7 -126 102 -44 52 -143 128 -167 128 -6 0 -17 -13
-25 -28z m-779 -93 c34 -22 80 -86 68 -97 -4 -4 -56 -7 -116 -7 -118 0 -129 4
-129 55 0 75 92 101 177 49z m1329 -204 c20 -30 35 -32 59 -5 12 13 31 20 55
20 l37 0 6 -82 c6 -83 6 -83 -26 -115 -28 -30 -36 -33 -94 -33 l-63 0 0 29 c0
32 30 61 62 61 22 0 31 15 23 40 -5 15 -15 20 -43 20 -50 0 -86 20 -90 49 -7
44 48 56 74 16z m-566 -124 c12 -24 13 -58 1 -65 -11 -7 -67 38 -82 65 -9 17
-6 19 30 19 30 0 43 -5 51 -19z m-670 -31 c0 -34 -4 -41 -25 -46 -14 -3 -36
-3 -50 0 -21 5 -25 12 -25 46 l0 40 50 0 50 0 0 -40z m565 -6 c25 -26 44 -52
42 -58 -2 -6 -25 -11 -52 -10 -73 1 -103 50 -63 102 16 19 23 15 73 -34z"/>
<path d="M975 2471 c-44 -11 -70 -27 -99 -62 -22 -25 -26 -41 -26 -90 l0 -59
-247 -2 -248 -3 0 -30 c0 -38 18 -42 183 -44 l122 -1 0 -25 c0 -21 -8 -26 -52
-40 -28 -8 -60 -15 -69 -15 -24 0 -33 -18 -19 -35 8 -9 30 -15 59 -15 54 0 77
-14 86 -52 5 -21 1 -33 -19 -52 -39 -40 -97 -32 -141 20 -15 17 -33 25 -60 27
-36 2 -40 0 -43 -24 -4 -34 40 -86 93 -110 55 -25 119 -24 181 5 91 42 116
101 70 168 l-23 34 23 28 c14 15 24 40 24 57 0 29 2 30 38 27 l37 -3 5 -165 5
-165 46 -3 46 -3 6 92 c4 51 7 127 7 171 l0 78 226 0 225 0 -3 -22 c-3 -23 -4
-23 -196 -26 -163 -2 -194 -5 -199 -18 -10 -27 14 -62 44 -66 26 -3 28 -6 29
-54 2 -87 53 -136 157 -149 l57 -6 0 35 c0 32 -3 36 -36 45 -72 20 -94 66 -53
109 19 21 28 22 107 20 l87 -3 2 -70 c2 -38 5 -85 8 -102 6 -31 8 -33 49 -33
41 0 44 2 50 31 3 17 6 94 6 170 l0 139 50 0 c54 0 56 -3 35 -40 -19 -33 -19
-95 1 -125 16 -25 61 -45 101 -45 18 0 27 -9 39 -40 10 -25 29 -48 53 -62 31
-20 49 -23 136 -22 113 0 155 15 180 64 25 48 19 85 -19 128 -37 40 -39 47
-37 105 l1 37 220 0 220 0 0 -24 c0 -23 -2 -23 -117 -29 -183 -8 -223 -32
-223 -129 0 -74 10 -92 68 -129 70 -44 132 -37 132 17 0 23 -17 34 -55 34 -29
0 -37 11 -38 57 -2 60 27 74 142 71 l96 -3 3 -102 3 -103 49 0 50 0 0 73 c0
39 3 115 6 168 l7 97 31 9 c26 7 31 14 31 38 l0 30 -695 7 c-648 7 -696 9
-708 25 -7 10 -27 40 -45 68 -57 85 -173 137 -262 116z m104 -81 c39 -11 86
-51 107 -92 l14 -27 -53 -6 c-28 -3 -83 -5 -121 -3 -68 3 -70 4 -77 32 -10 37
7 76 41 93 30 15 45 16 89 3z m689 -253 c23 -23 42 -47 42 -52 0 -6 -16 -23
-35 -38 -35 -27 -37 -28 -61 -12 -14 9 -28 22 -30 30 -7 16 24 115 35 115 4 0
26 -19 49 -43z m190 11 c4 -32 -13 -68 -32 -68 -19 0 -106 71 -106 87 0 11 15
13 68 11 65 -3 67 -4 70 -30z m40 -148 c49 -30 41 -73 -16 -90 -66 -18 -141
15 -128 57 8 24 54 52 86 53 14 0 40 -9 58 -20z"/>
<path d="M2923 2253 c-7 -2 -13 -17 -13 -32 l0 -28 128 -6 c70 -4 178 -7 240
-7 111 0 112 0 112 -24 0 -13 -7 -27 -16 -30 -9 -3 -67 -6 -130 -6 -113 0
-114 0 -120 -25 -9 -37 1 -53 38 -63 35 -9 50 -38 26 -53 -18 -12 -95 -11
-118 1 -11 6 -22 26 -26 45 -7 41 -35 53 -69 31 -57 -37 -13 -132 71 -155 126
-35 252 17 246 101 -2 22 3 29 24 34 14 4 36 2 50 -5 20 -9 24 -18 24 -54 0
-24 3 -65 6 -91 l7 -46 42 0 c30 0 45 5 49 16 3 9 6 85 6 170 l0 154 49 0 48
0 7 -92 c3 -50 6 -127 6 -170 l0 -79 47 3 47 3 -3 112 c-1 62 1 137 4 168 l7
55 160 0 159 0 -3 -27 c-3 -28 -3 -28 -101 -34 -76 -4 -103 -10 -125 -26 -49
-36 -37 -120 22 -150 18 -9 65 -18 116 -20 69 -4 92 -1 119 14 54 28 74 64 78
135 7 108 7 108 62 108 35 0 51 -4 55 -16 11 -30 6 -190 -6 -206 -7 -9 -46
-39 -85 -68 -76 -54 -81 -61 -60 -77 31 -25 47 -22 92 17 51 44 60 47 69 25 9
-23 83 -20 96 4 5 11 10 77 10 148 0 192 -23 173 211 173 l199 0 0 -23 c0 -24
-2 -24 -122 -30 -150 -7 -179 -16 -201 -63 -52 -108 21 -228 133 -222 40 3 45
6 48 29 3 29 -12 46 -48 51 -31 4 -55 46 -47 79 9 37 46 49 147 49 l90 0 0
-44 c0 -23 3 -71 6 -105 l7 -61 48 0 49 0 0 148 c0 177 3 189 42 197 26 6 29
11 26 38 l-3 32 -1010 2 c-555 1 -1016 -1 -1022 -4z m1107 -213 c0 -36 -23
-50 -82 -50 -47 0 -68 13 -68 42 0 26 28 37 93 38 57 0 57 0 57 -30z"/>
<path d="M5197 2253 c-4 -3 -7 -19 -7 -34 0 -23 5 -28 35 -33 19 -4 35 -10 35
-14 0 -4 -9 -33 -20 -65 -14 -42 -17 -64 -10 -77 6 -10 10 -26 10 -34 0 -24
41 -67 77 -82 38 -16 106 -18 133 -4 12 6 21 6 25 1 3 -5 -31 -33 -74 -62
l-80 -53 27 -18 c15 -10 32 -18 39 -18 7 0 39 23 73 51 48 40 64 48 75 39 7
-6 33 -10 57 -8 l43 3 3 168 2 167 49 0 48 0 7 -52 c3 -29 6 -106 6 -170 l0
-118 50 0 50 0 0 58 c0 31 3 108 7 170 l6 112 44 0 c46 0 53 -11 28 -44 -21
-28 -19 -95 5 -134 42 -68 115 -88 216 -57 44 13 50 13 69 -3 78 -66 184 -76
256 -23 16 12 30 21 33 21 2 0 7 -23 11 -51 l7 -50 47 3 46 3 5 162 c3 89 7
163 10 165 3 2 18 9 33 16 23 10 28 18 25 40 l-3 27 -746 3 c-410 1 -749 -1
-752 -5z m333 -155 c0 -103 -17 -128 -90 -128 -88 0 -127 61 -95 150 8 24 21
48 28 52 7 4 45 8 85 8 l72 0 0 -82z m770 49 c14 -27 14 -29 -9 -48 -15 -12
-38 -19 -67 -19 -42 0 -43 0 -46 -37 -3 -35 -6 -38 -37 -41 -53 -5 -80 6 -101
41 -24 39 -25 68 -5 108 l16 30 117 -3 c116 -3 116 -3 132 -31z m220 -29 c0
-76 -24 -122 -75 -144 -44 -18 -109 -18 -125 1 -16 19 -7 31 40 55 31 16 40
27 46 56 4 20 2 46 -5 60 -6 14 -11 27 -11 29 0 3 29 5 65 5 l65 0 0 -62z"/>
<path d="M6937 2253 c-4 -3 -7 -18 -7 -33 0 -27 1 -27 92 -34 50 -3 126 -6
170 -6 77 0 78 0 78 -25 0 -22 -4 -25 -39 -25 -22 0 -51 4 -64 9 -15 6 -38 6
-58 1 -19 -5 -47 -12 -62 -15 -48 -10 -77 -47 -77 -98 0 -60 25 -90 95 -112
56 -17 87 -17 167 3 l36 9 7 -44 6 -44 47 3 47 3 3 168 2 167 130 0 c143 0
150 -3 150 -69 0 -40 -25 -53 -124 -60 -60 -5 -82 -10 -90 -24 -15 -24 3 -51
40 -57 20 -4 35 -17 51 -45 36 -64 75 -85 159 -85 88 0 104 5 104 36 0 31 -27
44 -93 44 -41 0 -58 5 -72 20 -21 24 -22 23 32 38 71 21 122 108 93 161 -15
30 -5 41 39 41 l38 0 6 -97 c4 -54 7 -125 7 -159 0 -70 10 -84 62 -84 47 0 47
1 51 190 l2 145 214 3 c121 1 219 -2 224 -7 5 -5 6 -18 2 -30 -6 -20 -13 -21
-118 -21 -155 0 -226 -13 -254 -45 -29 -33 -29 -73 0 -116 30 -44 83 -62 162
-56 76 7 105 35 105 103 l0 44 43 0 c24 0 48 -5 55 -12 7 -7 12 -42 12 -86 0
-94 9 -112 59 -112 26 0 41 5 45 16 3 9 6 79 6 157 0 78 4 147 8 153 4 6 17
14 30 18 17 6 22 15 22 42 l0 34 -818 0 c-450 0 -822 -3 -825 -7z m309 -195
c29 -14 31 -39 4 -63 -29 -27 -131 -33 -165 -11 -84 55 58 121 161 74z m964
-29 c27 -49 -48 -92 -92 -52 -24 21 -23 39 4 57 32 23 75 20 88 -5z"/>
<path d="M8712 1798 c-23 -23 -11 -38 59 -74 39 -19 72 -34 74 -32 2 2 6 15
10 31 7 26 4 29 -59 57 -76 35 -69 33 -84 18z"/>
<path d="M326 1658 c-10 -30 -16 -212 -10 -278 l7 -71 31 3 31 3 -2 165 c-2
142 -5 167 -20 177 -21 16 -33 16 -37 1z"/>
<path d="M419 1654 c-10 -12 -13 -59 -14 -177 l0 -162 33 -3 c32 -3 32 -3 33
45 1 26 4 59 9 73 l7 25 12 -30 c6 -16 17 -43 23 -60 16 -42 28 -55 48 -55 27
0 30 19 30 171 0 139 -8 179 -34 179 -19 0 -26 -23 -26 -87 0 -46 -2 -53 -14
-44 -7 6 -21 33 -31 59 -18 47 -41 82 -55 82 -4 0 -14 -7 -21 -16z"/>
<path d="M648 1664 c-5 -4 -8 -85 -8 -181 l0 -173 75 0 c63 0 76 3 85 19 5 11
10 80 10 154 0 167 -6 178 -96 185 -32 2 -62 0 -66 -4z m100 -174 c3 -113 -5
-147 -29 -123 -12 12 -15 215 -4 233 4 6 12 9 18 7 8 -2 13 -42 15 -117z"/>
<path d="M856 1654 c-3 -9 -6 -90 -6 -180 l0 -164 69 0 c66 0 71 1 83 27 19
40 46 42 59 4 9 -25 16 -31 41 -31 28 0 29 2 23 31 -4 17 -11 54 -15 82 -14
94 -40 208 -50 228 -13 23 -33 25 -50 4 -7 -8 -25 -79 -39 -157 -15 -79 -32
-143 -37 -143 -5 0 -11 63 -14 141 -3 99 -9 146 -19 158 -17 20 -37 21 -45 0z
m184 -204 c0 -11 -7 -20 -15 -20 -15 0 -21 21 -8 33 12 13 23 7 23 -13z"/>
<path d="M1285 1658 c-2 -7 -6 -35 -7 -62 -2 -27 -7 -51 -13 -53 -5 -1 -19 20
-30 49 -23 58 -47 80 -67 60 -10 -10 -13 -57 -13 -175 l0 -162 28 -3 27 -3 0
75 c0 109 21 98 62 -32 12 -38 16 -42 45 -42 l33 0 0 153 c0 158 -9 199 -43
205 -9 2 -19 -2 -22 -10z"/>
<path d="M1497 1657 c-15 -10 -19 -34 -23 -132 -3 -66 -2 -140 3 -165 7 -39
12 -45 36 -48 l27 -3 0 165 c0 198 -3 213 -43 183z"/>
<path d="M1583 1658 c-10 -17 -17 -247 -8 -304 6 -41 9 -44 36 -44 l29 0 1 68
c0 66 0 67 17 43 9 -14 24 -43 32 -65 10 -28 22 -42 36 -44 18 -3 22 4 28 44
12 88 7 279 -7 299 -22 29 -37 9 -37 -48 0 -100 -21 -127 -41 -54 -24 91 -64
139 -86 105z"/>
<path d="M1815 1653 c-13 -13 -16 -29 -13 -70 4 -48 9 -58 51 -98 53 -50 68
-89 44 -112 -18 -18 -35 -10 -48 24 -21 57 -61 2 -45 -63 6 -23 10 -24 86 -24
l80 0 0 72 0 71 -55 58 c-30 32 -55 65 -55 73 0 24 30 19 57 -10 31 -34 53
-18 53 37 0 33 -4 41 -26 49 -41 16 -110 12 -129 -7z"/>
<path d="M2011 1656 c-14 -17 -5 -43 18 -49 15 -4 19 -20 24 -97 4 -51 7 -117
7 -147 0 -45 3 -53 19 -53 17 0 20 11 25 128 9 163 9 165 46 179 16 6 31 11
31 10 1 -1 4 -72 8 -157 l6 -155 33 -3 32 -3 0 150 0 151 24 0 c32 0 36 -14
36 -143 0 -143 4 -157 41 -157 l29 0 0 137 c0 135 0 137 27 165 20 21 24 31
15 40 -17 17 -117 22 -152 8 -24 -10 -33 -10 -45 0 -13 11 -20 11 -39 0 -18
-9 -29 -9 -44 -1 -30 16 -127 14 -141 -3z"/>
<path d="M2596 1654 c-3 -9 -6 -57 -6 -108 0 -51 -3 -114 -6 -140 -6 -40 -10
-47 -28 -44 -20 3 -21 10 -26 140 -5 137 -13 167 -43 155 -18 -7 -29 -131 -21
-231 9 -124 3 -116 94 -116 l80 0 0 164 c0 170 -3 196 -25 196 -7 0 -16 -7
-19 -16z"/>
<path d="M2683 1653 c-4 -11 3 -23 20 -37 23 -18 27 -30 27 -72 0 -28 3 -92 6
-142 7 -88 8 -92 30 -92 l24 0 0 137 c0 136 0 137 28 166 26 28 27 29 8 43
-29 21 -135 19 -143 -3z"/>
<path d="M2890 1660 c-12 -7 -16 -38 -20 -132 -3 -68 -3 -143 0 -168 l5 -45
68 -3 c61 -3 67 -1 67 16 0 21 -18 32 -50 32 -26 0 -43 34 -35 70 5 24 12 29
51 35 24 3 44 9 44 13 -1 18 -21 35 -50 41 -42 8 -55 28 -41 64 9 22 17 27 46
27 30 0 35 3 35 24 0 13 -7 27 -16 30 -24 9 -87 7 -104 -4z"/>
<path d="M3148 1643 c-6 -16 -11 -83 -11 -153 0 -70 5 -137 11 -152 11 -27 14
-28 92 -28 97 0 93 -9 88 190 -4 168 -5 170 -105 170 -60 0 -64 -2 -75 -27z
m112 -52 c11 -21 14 -171 4 -209 -5 -16 -13 -22 -28 -20 -20 3 -21 10 -24 112
-1 61 0 116 2 123 8 19 34 16 46 -6z"/>
<path d="M3375 1658 c-3 -8 -4 -88 -3 -178 l3 -165 24 -3 c32 -5 41 12 41 85
0 60 1 62 31 68 23 5 29 11 27 28 -2 13 -13 23 -27 27 -59 14 -50 86 11 92 28
2 33 7 33 28 0 24 -3 25 -68 28 -49 2 -69 -1 -72 -10z"/>
<path d="M3646 1658 c-13 -40 -16 -113 -10 -224 l7 -125 66 3 c60 3 66 5 69
26 3 18 -1 22 -25 22 -38 0 -53 16 -53 57 0 34 21 53 59 53 33 0 27 38 -6 46
-50 10 -53 13 -53 42 0 32 16 52 41 52 9 0 23 7 30 16 11 14 10 18 -6 30 -24
18 -114 19 -119 2z"/>
<path d="M3825 1648 c-3 -13 -4 -93 -3 -178 3 -147 4 -155 23 -155 17 0 21 9
28 73 5 39 12 72 16 72 3 0 18 -33 32 -72 22 -62 30 -73 51 -76 33 -4 38 22
37 182 -1 159 -10 191 -49 166 -9 -5 -17 -32 -20 -67 l-6 -58 -19 34 c-59 100
-80 119 -90 79z"/>
<path d="M4064 1656 c-17 -13 -19 -27 -19 -153 0 -76 4 -151 8 -166 8 -28 8
-28 85 -25 l77 3 3 89 c3 91 -2 105 -39 106 -8 0 -23 -6 -34 -13 -17 -13 -17
-15 5 -44 29 -40 21 -96 -13 -91 -19 3 -23 12 -30 68 -11 83 -1 169 20 177 10
4 25 -5 43 -27 16 -19 32 -30 38 -26 16 9 15 89 0 104 -17 17 -120 15 -144 -2z"/>
<path d="M4277 1652 c-14 -16 -17 -44 -17 -180 l0 -162 29 0 c38 0 41 13 41
183 0 165 -13 204 -53 159z"/>
<path d="M4367 1664 c-4 -4 -7 -85 -7 -181 l0 -173 25 0 c22 0 25 5 27 38 1
20 0 56 -1 80 -3 41 14 60 24 27 3 -8 8 -23 12 -32 3 -10 13 -38 22 -63 13
-37 21 -46 44 -48 l27 -3 0 168 c0 92 -4 174 -9 182 -22 35 -66 -26 -58 -81 6
-45 -11 -32 -41 30 -25 53 -48 73 -65 56z"/>
<path d="M4582 1658 c-8 -8 -12 -63 -12 -180 l0 -168 74 0 c73 0 99 11 78 32
-6 6 -25 13 -44 17 -31 7 -33 9 -33 51 0 43 2 46 35 56 45 15 52 41 13 49 -50
11 -53 14 -53 43 0 36 16 52 52 52 33 0 46 23 28 45 -15 18 -120 21 -138 3z"/>
<path d="M4773 1663 c-10 -3 -13 -49 -13 -179 l0 -174 75 0 c67 0 75 2 75 19
0 20 -18 31 -50 31 -26 0 -41 32 -34 69 5 25 13 32 40 37 19 3 37 10 40 16 9
14 -16 38 -40 38 -43 0 -61 44 -30 74 8 9 28 16 44 16 35 0 49 29 24 47 -17
13 -106 17 -131 6z"/>
<path d="M4964 1662 c-12 -7 -20 -151 -16 -284 l2 -68 30 0 c31 0 29 -3 44 90
1 8 14 -9 29 -37 19 -37 33 -53 47 -53 26 0 26 25 0 92 l-20 52 25 26 c21 22
25 36 25 88 0 83 -18 102 -97 102 -32 0 -63 -4 -69 -8z m90 -68 c20 -19 20
-44 2 -69 -12 -16 -16 -17 -30 -6 -19 16 -21 62 -4 79 15 15 13 15 32 -4z"/>
<path d="M5166 1654 c-3 -9 -6 -90 -6 -180 l0 -165 27 3 c36 4 41 24 42 183 1
103 -2 135 -15 153 -18 26 -39 29 -48 6z"/>
<path d="M5267 1652 c-14 -16 -17 -43 -17 -180 l0 -162 30 0 c33 0 38 10 42
88 2 23 7 42 12 43 5 0 18 -28 30 -63 18 -55 24 -63 49 -66 l27 -3 0 160 c0
166 -3 191 -25 191 -21 0 -29 -20 -36 -85 l-5 -60 -28 60 c-47 104 -51 108
-79 77z"/>
<path d="M5497 1658 c-16 -12 -17 -30 -15 -178 l3 -165 74 -3 c41 -2 78 1 84
7 5 5 12 41 15 79 4 62 2 72 -17 91 -25 25 -59 25 -74 0 -7 -12 -4 -24 12 -46
30 -40 25 -78 -9 -78 -24 0 -25 4 -32 70 -7 76 0 173 13 181 4 2 24 -10 45
-28 35 -31 37 -31 50 -13 18 24 18 46 0 70 -17 24 -122 33 -149 13z"/>
<path d="M5805 1657 c-12 -10 -18 -28 -19 -59 -1 -41 4 -50 62 -117 63 -73 69
-85 53 -110 -14 -21 -59 -6 -63 21 -4 30 -34 35 -48 8 -8 -16 -8 -30 0 -55
l12 -35 79 0 79 0 0 71 0 71 -55 56 c-39 38 -55 62 -53 76 5 34 40 31 61 -5
14 -26 20 -29 32 -19 18 15 20 81 3 98 -16 16 -120 15 -143 -1z"/>
<path d="M6022 1654 c-21 -14 -22 -22 -22 -160 0 -81 5 -154 10 -165 9 -16 22
-19 83 -19 44 0 78 5 85 12 17 17 15 74 -4 92 -23 24 -33 20 -50 -19 -16 -40
-41 -46 -49 -12 -3 12 -5 67 -3 122 3 86 5 100 21 103 12 3 21 -6 28 -27 8
-23 17 -31 34 -31 31 0 41 32 25 81 l-13 39 -61 0 c-40 0 -70 -6 -84 -16z"/>
<path d="M6229 1654 c-10 -13 -15 -58 -17 -181 l-3 -164 33 3 33 3 0 175 c0
152 -2 175 -16 178 -9 1 -22 -5 -30 -14z"/>
<path d="M6322 1658 c-8 -8 -12 -63 -12 -180 l0 -168 74 0 c56 0 75 4 79 15 7
17 -5 26 -47 35 -29 5 -31 9 -31 50 0 43 2 46 35 56 45 15 52 41 13 49 -50 11
-53 14 -53 43 0 36 16 52 52 52 33 0 46 23 28 45 -15 18 -120 21 -138 3z"/>
<path d="M6507 1663 c-4 -3 -7 -84 -7 -180 0 -166 1 -173 20 -173 22 0 29 19
32 98 2 29 7 53 13 53 5 0 22 -34 38 -75 25 -66 32 -76 53 -76 l24 0 0 175 c0
151 -2 176 -16 182 -29 11 -49 -23 -47 -78 2 -46 1 -50 -14 -37 -9 7 -23 29
-31 48 -22 54 -49 80 -65 63z"/>
<path d="M6744 1656 c-17 -13 -19 -29 -22 -143 -2 -71 0 -145 5 -164 l9 -34
74 -3 c81 -3 90 2 90 54 0 35 -22 70 -38 60 -6 -3 -13 -20 -17 -36 -5 -23 -12
-30 -30 -30 -31 0 -35 15 -35 130 0 74 4 101 15 110 20 17 43 6 51 -25 8 -32
39 -33 48 -2 11 43 6 76 -13 87 -28 15 -114 12 -137 -4z"/>
<path d="M6956 1657 c-14 -10 -18 -34 -22 -137 -3 -69 -2 -143 3 -165 l9 -40
67 -3 c61 -3 67 -1 67 16 0 22 -18 32 -56 32 -22 0 -24 4 -24 49 l0 48 40 7
c31 5 40 11 40 26 0 14 -9 21 -35 26 -34 6 -35 8 -35 49 0 42 1 44 32 47 35 3
51 33 26 49 -20 13 -92 11 -112 -4z"/>
<path d="M7277 1643 c-14 -27 -49 -189 -62 -285 -6 -47 -5 -48 20 -48 19 0 28
7 36 27 6 15 15 31 22 35 15 9 47 -20 47 -44 0 -12 7 -18 24 -18 14 0 27 4 30
8 7 12 -43 279 -59 320 -17 39 -40 41 -58 5z m41 -192 c3 -16 -1 -22 -10 -19
-7 3 -15 15 -16 27 -3 16 1 22 10 19 7 -3 15 -15 16 -27z"/>
<path d="M7436 1655 c-13 -14 -16 -43 -16 -181 l0 -164 30 0 c30 0 30 0 30 58
0 50 12 95 23 82 2 -3 14 -34 28 -70 21 -56 28 -65 49 -65 l25 0 3 159 c2 137
0 161 -14 177 -35 39 -46 25 -42 -56 4 -101 -10 -99 -54 9 -26 65 -38 75 -62
51z"/>
<path d="M7658 1664 c-5 -4 -8 -85 -8 -181 l0 -173 74 0 c101 0 101 0 100 172
-1 168 -7 179 -101 186 -32 2 -61 0 -65 -4z m104 -120 c10 -80 -2 -179 -22
-179 -12 0 -16 20 -18 109 -1 61 0 116 3 124 11 30 30 3 37 -54z"/>
<path d="M7951 1656 c-14 -16 -4 -46 14 -46 24 0 28 -20 34 -159 l6 -136 30 0
30 0 0 139 c0 133 1 139 23 153 49 33 15 63 -71 63 -34 0 -59 -5 -66 -14z"/>
<path d="M8160 1650 c-18 -18 -20 -33 -20 -164 0 -79 3 -151 6 -160 9 -22 129
-23 138 -1 6 17 -22 35 -53 35 -18 0 -21 6 -21 49 0 48 1 49 34 55 57 11 54
50 -4 58 -27 3 -35 25 -26 64 5 19 13 24 37 24 33 0 48 22 29 45 -19 23 -95
20 -120 -5z"/>
<path d="M8346 1654 c-13 -13 -16 -42 -16 -167 0 -84 4 -158 9 -165 5 -9 29
-12 82 -10 l74 3 3 49 c4 55 -9 76 -32 57 -8 -7 -16 -22 -18 -34 -2 -16 -10
-22 -28 -22 l-25 0 0 120 0 120 25 0 c17 0 26 -7 30 -25 4 -16 13 -25 25 -25
17 0 21 8 23 49 2 32 -1 52 -10 57 -24 15 -125 10 -142 -7z"/>
<path d="M8540 1651 c-11 -21 -14 -280 -4 -319 5 -18 13 -22 33 -20 25 3 26 6
31 73 5 68 6 70 33 73 25 3 27 1 27 -35 0 -21 3 -55 7 -76 5 -35 8 -38 37 -35
l31 3 -1 164 c0 149 -2 165 -19 177 -31 23 -39 12 -50 -62 -10 -64 -12 -69
-35 -69 -23 0 -25 4 -28 55 -4 74 -39 114 -62 71z"/>
<path d="M8776 1657 c-17 -12 -19 -30 -20 -178 l-1 -164 31 -3 c29 -3 32 0 37
35 4 21 7 53 7 71 0 39 17 42 26 5 4 -16 15 -47 25 -70 15 -34 23 -43 43 -43
20 0 26 6 31 33 8 42 0 300 -9 315 -20 33 -56 -7 -56 -63 0 -66 -28 -68 -44
-3 -3 15 -16 39 -29 53 -19 23 -24 24 -41 12z"/>
<path d="M9020 1661 l-25 -7 0 -169 0 -170 88 -3 87 -3 -2 178 -3 178 -60 2
c-33 1 -71 -2 -85 -6z m94 -67 c8 -21 8 -163 0 -203 -5 -25 -11 -31 -28 -29
-20 3 -21 10 -24 112 -1 61 0 116 2 123 7 18 43 16 50 -3z"/>
<path d="M9212 1658 c-8 -8 -12 -63 -12 -180 l0 -169 72 3 c59 2 73 6 76 20 2
12 -5 19 -25 23 -15 4 -34 8 -40 11 -10 2 -13 39 -13 137 0 117 -2 136 -18
150 -22 20 -25 20 -40 5z"/>
<path d="M9390 1650 c-18 -18 -20 -33 -19 -152 1 -191 -3 -182 100 -186 l86
-3 7 62 c13 130 1 273 -25 290 -8 5 -40 9 -71 9 -45 0 -63 -5 -78 -20z m113
-102 c3 -29 2 -82 -1 -118 -6 -56 -10 -65 -28 -68 -18 -3 -22 4 -27 35 -10 58
-8 169 3 198 8 21 13 24 28 16 14 -7 21 -26 25 -63z"/>
<path d="M9599 1633 c-8 -22 -13 -83 -13 -143 0 -60 5 -121 13 -142 l13 -38
74 0 c71 0 75 1 84 26 18 46 12 132 -10 154 -24 24 -53 26 -70 5 -11 -13 -9
-21 9 -46 30 -41 26 -84 -9 -84 l-25 0 -3 118 c-2 100 0 118 13 123 10 4 28
-4 46 -22 30 -28 31 -28 45 -10 40 55 1 96 -92 96 l-62 0 -13 -37z"/>
<path d="M9827 1663 c-13 -12 -7 -58 18 -138 14 -44 25 -103 25 -132 0 -64 7
-83 31 -83 28 0 39 31 39 108 0 46 8 92 25 141 26 76 24 101 -6 101 -22 0 -39
-28 -39 -64 0 -46 -20 -38 -45 18 -24 54 -34 64 -48 49z"/>
<path d="M10221 1651 c-14 -14 -21 -34 -21 -61 0 -34 8 -47 61 -104 49 -53 60
-70 57 -93 -5 -42 -45 -45 -59 -4 -16 47 -59 34 -59 -17 0 -52 15 -62 94 -62
84 0 86 2 86 82 0 48 -3 54 -61 115 -33 36 -58 70 -56 76 7 23 38 18 64 -9 24
-27 26 -27 39 -9 18 24 18 56 0 80 -9 12 -30 20 -68 23 -47 4 -59 1 -77 -17z"/>
<path d="M10417 1663 c-6 -9 -10 -177 -8 -280 l1 -73 30 0 c23 0 31 5 36 24 3
14 3 34 -1 46 -3 11 -4 34 0 50 5 23 12 30 30 30 26 0 32 -18 37 -105 3 -35 6
-40 28 -40 33 0 38 23 39 180 1 103 -2 135 -15 153 -30 43 -54 23 -54 -46 0
-60 -10 -82 -35 -82 -28 0 -35 18 -33 79 2 32 -2 47 -17 57 -21 16 -32 17 -38
7z"/>
<path d="M10738 1664 c-5 -4 -8 -85 -8 -181 l0 -173 78 0 c47 0 83 5 90 12 16
16 15 123 0 148 -10 16 -10 24 0 40 15 25 16 136 0 146 -17 10 -152 17 -160 8z
m108 -78 c7 -28 -12 -69 -28 -64 -23 8 -32 36 -20 62 15 33 40 34 48 2z m-4
-143 c28 -26 21 -83 -11 -83 -34 0 -51 41 -35 84 8 20 23 20 46 -1z"/>
<path d="M10953 1659 c-15 -15 -18 -315 -4 -337 4 -8 19 -12 32 -10 22 3 24 9
27 60 3 62 5 64 77 70 35 4 43 23 44 119 1 90 -9 102 -95 107 -47 2 -73 0 -81
-9z m95 -61 c17 -17 15 -83 -3 -98 -23 -19 -35 -2 -35 49 0 60 12 75 38 49z"/>
<path d="M11167 1663 c-4 -3 -7 -85 -7 -180 l0 -174 88 3 87 3 3 173 c2 154 1
173 -14 179 -11 4 -24 -2 -36 -16 -15 -20 -18 -42 -18 -152 0 -127 -7 -156
-33 -130 -8 8 -13 61 -15 144 -3 108 -6 134 -19 145 -19 14 -27 15 -36 5z"/>
<path d="M11382 1662 c-9 -6 -12 -49 -10 -178 l3 -169 30 0 c29 0 30 2 35 50
l5 50 17 -25 c9 -14 22 -37 29 -52 8 -19 20 -28 36 -28 28 0 28 6 3 72 -25 67
-25 83 1 102 19 13 22 25 22 86 0 39 -5 76 -11 82 -13 13 -143 22 -160 10z
m96 -64 c24 -24 9 -88 -20 -88 -16 0 -28 49 -18 75 11 28 20 31 38 13z"/>
<path d="M10642 1648 c-8 -8 -12 -62 -12 -175 l0 -163 24 0 c13 0 27 7 30 16
3 9 6 79 6 155 0 160 -12 203 -48 167z"/>
<path d="M10019 1343 c-12 -32 3 -77 23 -71 20 7 33 65 18 83 -18 22 -29 19
-41 -12z"/>
<path d="M1259 1155 c-29 -16 -39 -48 -39 -126 l0 -49 -325 0 -326 0 -24 -27
-24 -28 -21 23 c-31 33 -83 30 -109 -7 -12 -16 -21 -40 -21 -54 0 -46 54 -45
71 1 14 36 31 14 27 -33 -3 -33 -7 -38 -42 -50 -49 -17 -56 -28 -56 -91 0 -52
19 -82 63 -97 45 -16 97 39 97 102 0 34 12 45 40 36 17 -5 20 -15 20 -64 0
-63 16 -95 46 -89 17 3 20 15 25 113 4 61 7 127 8 148 1 30 5 37 21 37 18 0
20 -7 21 -92 1 -51 4 -118 7 -148 7 -53 8 -55 40 -58 l32 -3 0 150 0 150 44 6
c58 9 98 -5 114 -39 12 -23 11 -31 -2 -52 -14 -20 -25 -24 -65 -24 -40 0 -50
-3 -54 -20 -7 -29 3 -60 20 -60 8 0 21 -17 29 -37 27 -64 51 -83 106 -83 l48
0 0 35 c0 32 -3 35 -37 40 -58 10 -63 13 -63 35 0 13 7 20 19 20 38 0 61 46
61 123 l0 70 61 -7 c34 -3 88 -6 120 -6 46 0 59 -3 59 -15 0 -19 -39 -35 -84
-35 -46 0 -95 -19 -106 -40 -15 -29 -12 -128 5 -165 16 -33 50 -55 85 -55 32
0 26 45 -10 70 -35 25 -42 77 -12 102 24 22 77 31 101 18 18 -9 21 -20 21 -80
0 -80 6 -100 30 -100 33 0 39 24 42 161 l3 134 25 0 c25 0 25 0 31 -120 4 -66
7 -132 8 -146 1 -32 29 -46 49 -25 11 11 16 51 20 155 4 128 7 141 24 147 26
8 76 -14 83 -37 9 -27 -10 -55 -45 -67 -16 -6 -30 -13 -30 -15 0 -2 7 -26 15
-54 20 -68 65 -108 109 -98 17 4 40 9 51 12 14 3 23 -3 30 -19 12 -27 44 -36
56 -16 5 7 9 74 9 148 0 124 2 136 20 148 24 15 26 35 3 53 -11 10 -62 15
-182 19 -164 5 -165 5 -177 30 -43 93 -60 124 -82 141 -29 22 -47 23 -83 4z
m91 -85 c25 -50 26 -87 1 -95 -26 -8 -47 2 -60 31 -14 31 -14 60 -1 85 17 30
38 23 60 -21z m-765 -176 c17 -17 13 -49 -11 -73 -21 -23 -44 4 -44 50 0 32 4
39 19 39 11 0 27 -7 36 -16z m1086 6 c15 -9 19 -22 19 -68 0 -78 -25 -126 -66
-130 -19 -2 -36 3 -44 13 -11 13 -9 20 14 44 22 23 29 41 33 90 6 63 11 68 44
51z m-1203 -187 c-3 -43 -32 -58 -43 -24 -9 31 3 61 26 61 17 0 20 -6 17 -37z"/>
<path d="M3982 1163 c-24 -9 -42 -62 -42 -123 l0 -60 -219 0 -220 0 -33 67
c-38 77 -67 102 -127 110 -64 9 -99 -29 -110 -121 l-6 -51 -140 -6 c-77 -4
-213 -7 -302 -8 -154 -1 -162 -2 -168 -22 -11 -35 -30 -15 -27 30 3 45 -30
122 -67 155 -11 10 -40 21 -64 23 -36 4 -48 1 -71 -19 -33 -28 -57 -90 -49
-128 4 -24 1 -28 -27 -34 -18 -3 -53 -6 -77 -6 l-45 0 7 -32 c3 -18 7 -49 8
-68 2 -29 -2 -36 -20 -38 -20 -3 -23 1 -23 33 0 50 -23 90 -61 105 -26 11 -38
11 -73 -2 -41 -15 -58 -36 -71 -90 -6 -24 -4 -28 14 -28 12 0 35 14 53 30 37
36 42 36 69 9 l21 -21 -26 -27 c-31 -32 -34 -61 -6 -68 28 -7 36 -47 16 -78
-28 -43 -62 -26 -75 38 -5 25 -12 33 -34 35 -18 2 -29 -2 -33 -12 -12 -31 7
-89 41 -123 44 -44 94 -46 136 -4 25 26 29 37 29 85 0 52 2 56 24 56 22 0 24
-4 31 -85 4 -47 11 -87 16 -90 4 -3 20 2 35 11 25 17 26 21 23 93 -1 42 -2
104 -1 139 2 58 4 62 26 62 21 0 24 -5 29 -67 4 -38 7 -102 7 -144 0 -58 4
-80 16 -90 14 -11 19 -10 35 10 11 13 19 34 19 47 0 31 8 30 39 -6 38 -43 71
-47 109 -15 24 20 32 35 32 60 0 55 54 90 65 43 3 -13 6 -48 7 -78 3 -45 6
-55 22 -58 37 -8 46 24 46 164 l0 132 29 7 c38 8 67 -7 75 -41 8 -30 -16 -64
-46 -64 -44 0 -10 -117 44 -150 32 -20 38 -20 113 -3 14 3 23 -3 30 -19 6 -13
19 -23 30 -23 17 0 21 9 27 55 3 30 6 97 7 148 1 90 2 92 25 92 31 0 36 -19
36 -161 0 -118 6 -139 41 -139 23 0 29 39 29 181 l0 119 25 0 25 0 0 -127 c0
-160 4 -173 41 -173 l29 0 0 134 c0 74 3 141 6 150 5 13 26 16 125 16 l119 0
0 -74 c0 -54 -4 -79 -16 -90 -24 -24 -36 -19 -30 12 4 18 0 38 -14 60 -18 29
-24 32 -68 32 -36 0 -54 -5 -66 -19 -28 -30 -16 -46 32 -43 33 3 43 -1 52 -17
16 -30 -7 -72 -48 -91 -27 -11 -32 -19 -30 -40 4 -32 28 -30 109 10 34 16 65
28 70 25 4 -3 11 -21 15 -40 7 -40 11 -41 42 -19 20 14 22 23 22 123 0 60 3
123 6 140 l7 31 93 0 94 0 0 -34 c0 -35 -13 -55 -25 -36 -7 11 -57 13 -93 4
-21 -6 -62 -68 -62 -95 0 -44 72 -124 104 -114 56 17 66 15 76 -10 12 -32 21
-31 60 1 27 24 34 25 54 14 43 -23 97 8 116 66 15 43 5 85 -25 118 -20 22 -33
26 -80 26 -54 0 -55 0 -55 29 0 29 1 30 65 36 35 4 81 3 102 -2 l38 -9 3 -134
c1 -78 7 -139 14 -147 9 -11 45 -19 49 -10 1 1 5 67 9 147 5 80 11 161 15 180
6 30 3 36 -16 45 -15 7 -28 29 -40 72 -30 97 -85 141 -147 116z m86 -93 c41
-61 23 -111 -33 -90 -21 8 -25 16 -25 54 0 84 18 95 58 36z m-1559 -15 c17
-20 31 -43 31 -51 0 -8 -21 -24 -47 -36 l-47 -21 -23 27 c-15 18 -23 40 -23
65 0 46 5 51 46 51 24 0 39 -9 63 -35z m890 14 c20 -22 38 -76 28 -86 -12 -11
-84 -14 -109 -4 -23 8 -28 17 -28 42 0 64 67 93 109 48z m-851 -183 c7 -36 -7
-63 -36 -69 -16 -3 -40 -17 -53 -31 -13 -14 -27 -26 -31 -26 -5 0 -8 29 -8 65
0 37 4 65 10 65 6 0 10 -6 10 -14 0 -15 38 -29 52 -20 5 3 13 17 19 31 10 27
32 26 37 -1z m412 14 c20 -12 16 -134 -5 -167 -23 -34 -57 -48 -84 -34 -21 12
-30 51 -11 51 6 0 19 9 30 20 16 16 20 33 20 80 0 51 3 60 18 60 9 0 24 -4 32
-10z m-292 -36 c5 -52 -48 -71 -63 -23 -11 35 4 60 33 57 22 -2 28 -9 30 -34z
m1150 -109 c3 -29 -1 -43 -14 -52 -28 -20 -62 -16 -79 11 -20 30 -10 56 26 63
16 3 32 10 35 15 12 19 29 0 32 -37z m163 4 c8 -16 8 -28 0 -46 -9 -20 -17
-24 -49 -21 -29 2 -38 8 -40 25 -2 12 2 31 8 42 15 29 65 28 81 0z m-1433 -39
c3 -37 -13 -58 -35 -44 -23 14 -28 41 -12 60 18 22 44 13 47 -16z"/>
<path d="M4465 1163 c-49 -12 -85 -75 -85 -149 0 -18 -8 -38 -20 -49 -27 -24
-25 -43 5 -57 l25 -11 0 -149 0 -148 30 0 30 0 0 119 c0 65 3 133 6 150 l7 31
102 0 c87 0 104 -3 109 -17 11 -27 -8 -36 -47 -24 -31 10 -41 9 -75 -8 -46
-23 -52 -35 -52 -100 0 -63 36 -101 96 -101 22 0 45 5 52 12 15 15 29 2 34
-32 2 -17 10 -26 25 -28 34 -5 43 31 43 174 l0 124 160 0 c149 0 160 -1 160
-19 0 -15 -11 -19 -67 -24 -38 -4 -93 -7 -124 -7 -33 0 -61 -5 -67 -12 -20
-27 -23 -58 -7 -92 19 -39 55 -56 117 -56 26 0 41 -5 45 -16 13 -33 -18 -38
-128 -18 -22 3 -39 2 -43 -5 -11 -17 13 -52 42 -62 17 -6 41 -32 65 -70 32
-50 41 -59 53 -49 18 16 18 34 0 69 -17 32 -11 46 26 55 49 11 76 97 42 130
-17 18 -39 24 -102 29 -39 3 -61 18 -62 40 0 6 209 11 211 5 0 -2 4 -47 8
-100 4 -54 10 -101 14 -104 3 -4 18 1 31 10 25 16 26 19 28 154 l3 137 25 0
25 0 6 -145 c4 -80 7 -146 8 -147 0 -2 9 -3 19 -3 36 0 42 20 42 150 0 69 5
132 10 140 7 12 32 15 125 14 124 -1 145 -8 126 -43 -11 -19 -20 -21 -97 -21
-97 0 -116 -7 -134 -49 -33 -81 37 -167 116 -141 39 13 54 35 54 82 0 45 13
62 39 53 18 -6 21 -14 21 -70 0 -83 13 -117 43 -113 22 3 22 6 25 150 2 134 4
147 21 153 26 8 32 29 16 52 -13 17 -41 18 -499 21 l-486 4 -31 58 c-50 95
-107 137 -164 123z m85 -93 c60 -60 41 -106 -38 -96 -24 3 -48 8 -53 12 -12 7
-11 61 1 85 14 26 64 25 90 -1z m118 -282 c34 -34 -6 -81 -65 -76 -33 3 -38 6
-41 31 -2 16 2 35 9 43 14 17 80 19 97 2z m752 -19 c25 -45 -14 -91 -48 -57
-25 25 -8 78 25 78 7 0 17 -9 23 -21z"/>
<path d="M6734 1155 c-4 -9 2 -25 14 -38 24 -27 75 -127 68 -134 -16 -16 -59
31 -104 114 -19 33 -60 52 -73 32 -14 -22 -11 -38 13 -57 42 -33 78 -71 78
-81 0 -7 -34 -11 -94 -11 -52 0 -106 -4 -121 -10 -34 -13 -43 -39 -19 -57 16
-12 19 -27 19 -108 0 -110 17 -144 78 -158 44 -11 45 -16 12 -47 -30 -28 -34
-70 -7 -70 10 0 31 14 47 30 18 18 39 30 55 30 40 0 50 18 50 90 0 37 3 101 6
143 7 72 8 77 30 77 21 0 24 -5 25 -37 1 -21 4 -87 8 -148 5 -96 8 -110 25
-113 34 -7 41 15 46 156 l5 137 65 0 c51 0 65 -3 65 -15 0 -10 -16 -19 -45
-26 -56 -13 -74 -49 -49 -93 14 -24 14 -32 3 -52 -19 -35 -17 -72 6 -97 31
-33 108 -31 149 4 32 27 61 26 61 -1 0 -10 10 -15 30 -15 l29 0 3 148 3 147
25 0 25 0 6 -140 c8 -170 5 -155 27 -155 36 0 42 20 42 141 0 151 14 189 58
160 12 -7 12 -12 1 -29 -10 -16 -11 -31 -3 -64 6 -24 9 -78 7 -120 -3 -70 -1
-78 18 -88 11 -7 24 -9 27 -5 4 4 9 74 11 156 l3 149 94 0 c76 0 96 -3 101
-15 8 -22 3 -25 -58 -34 -93 -15 -123 -79 -70 -151 15 -20 28 -26 72 -28 93
-5 114 19 127 148 7 71 8 75 32 75 l25 0 5 -137 c5 -141 12 -163 46 -156 19 3
24 44 33 266 l1 33 93 -3 92 -3 3 -32 3 -32 -55 6 c-49 5 -57 3 -80 -20 -71
-71 7 -231 91 -186 23 12 27 11 47 -14 25 -31 29 -32 50 -11 11 11 16 35 16
83 0 75 11 94 56 94 66 -1 72 -85 6 -91 -26 -3 -32 -8 -32 -26 0 -29 45 -50
85 -40 41 10 71 83 56 134 -17 58 -43 75 -112 75 l-59 -1 0 33 0 33 110 0 110
0 0 -122 c0 -127 10 -170 42 -176 15 -3 17 13 20 141 2 121 6 148 21 164 24
27 21 43 -12 72 -16 14 -39 52 -51 83 -30 77 -60 108 -104 108 -51 0 -80 -44
-81 -124 l0 -61 -263 0 -264 0 -13 38 c-18 54 -60 104 -106 127 -38 20 -41 20
-75 4 -41 -19 -59 -51 -69 -117 -12 -81 -71 -84 -111 -4 -26 52 -93 137 -108
137 -21 0 -38 -27 -32 -48 4 -10 17 -24 31 -30 23 -11 85 -86 85 -104 0 -4
-88 -8 -196 -8 l-195 0 -20 48 c-42 102 -64 137 -87 140 -13 2 -25 -3 -28 -13z
m1584 -85 c31 -46 30 -88 -3 -96 -33 -8 -53 9 -61 53 -7 39 10 87 29 81 6 -3
22 -19 35 -38z m-757 -9 c17 -17 29 -40 29 -55 0 -22 -5 -26 -44 -31 -64 -10
-86 5 -86 59 0 51 4 56 42 56 19 0 40 -10 59 -29z m-411 -242 c0 -38 -6 -84
-14 -103 -27 -65 -103 -97 -141 -60 -21 22 -14 38 18 42 57 7 61 58 5 64 -53
5 -43 32 13 36 l47 3 6 49 c7 51 19 63 49 48 14 -7 17 -22 17 -79z m-468 -5
l3 -86 -29 -15 c-29 -15 -31 -14 -53 11 -18 21 -23 39 -23 82 0 76 11 94 60
94 l39 0 3 -86z m968 -24 c11 -7 12 -15 4 -37 -8 -23 -15 -28 -44 -28 -29 0
-36 4 -38 23 -2 13 -1 30 2 38 6 16 53 19 76 4z m407 -26 c3 -9 2 -28 -3 -43
-8 -21 -16 -26 -44 -26 -31 0 -35 3 -38 28 -5 45 4 57 43 57 24 0 38 -5 42
-16z"/>
<path d="M10384 1137 c-22 -19 -28 -34 -33 -88 -5 -54 -10 -66 -28 -74 -16 -7
-23 -18 -23 -37 0 -16 4 -28 9 -28 5 0 17 -7 25 -16 13 -12 16 -40 16 -132 0
-133 5 -162 29 -162 35 0 41 21 41 149 0 142 10 175 34 118 14 -35 37 -46 74
-35 10 3 3 30 -14 49 -18 20 -8 49 16 49 26 0 42 -25 47 -74 7 -59 -19 -86
-81 -86 -58 0 -67 -16 -28 -49 16 -14 33 -36 37 -48 11 -40 62 -73 111 -73 42
0 44 1 44 29 0 25 -4 29 -42 37 -33 7 -44 14 -46 31 -2 14 3 23 17 28 29 9 43
39 56 116 9 63 11 66 33 58 21 -8 22 -12 22 -147 0 -114 3 -142 16 -152 12
-11 18 -10 32 4 14 13 18 43 22 154 l5 137 108 3 107 3 0 -29 0 -30 -46 10
c-90 19 -134 -12 -134 -96 0 -49 3 -57 32 -81 29 -24 36 -26 90 -20 l58 7 6
-31 c4 -20 12 -31 24 -31 14 0 18 13 23 68 4 37 7 104 7 148 0 81 0 82 28 87
15 3 29 4 31 2 2 -3 -1 -24 -7 -47 -17 -67 -5 -121 34 -159 33 -32 40 -33 102
-14 21 7 22 4 22 -38 0 -35 -5 -49 -20 -60 -26 -18 -17 -45 19 -53 48 -10 52
-14 49 -36 -3 -20 -10 -23 -50 -26 -40 -3 -51 1 -81 27 -19 17 -37 31 -40 31
-13 0 -17 -53 -5 -68 18 -21 107 -62 136 -62 38 0 92 30 107 60 16 32 9 70
-24 124 -19 29 -21 49 -21 170 0 156 -3 151 89 150 60 0 81 -17 81 -65 0 -35
-12 -42 -75 -49 -48 -5 -50 -7 -53 -37 -3 -25 2 -35 22 -48 14 -9 28 -25 31
-36 4 -10 18 -33 32 -49 21 -26 32 -30 74 -30 l49 0 0 34 c0 33 -2 34 -47 42
-37 7 -49 14 -51 29 -2 15 6 24 28 32 36 14 52 49 52 118 0 39 4 54 21 67 18
14 20 21 11 35 -16 26 -93 30 -547 32 l-387 1 -10 -24 c-5 -13 -13 -26 -17
-29 -11 -7 -29 35 -37 84 -20 114 -141 187 -212 126z m136 -79 c23 -38 26 -68
6 -68 -7 0 -25 -9 -39 -20 l-26 -20 -27 23 c-19 17 -27 33 -27 55 0 42 19 62
59 62 28 0 38 -6 54 -32z m740 -233 c0 -73 -1 -76 -27 -86 -23 -8 -30 -6 -52
16 -21 20 -26 35 -25 70 1 57 17 75 65 75 l39 0 0 -75z m-285 -45 c18 -20 18
-21 -5 -45 -33 -35 -86 -35 -102 0 -9 21 -8 28 7 45 24 26 76 26 100 0z"/>
<path d="M3135 1130 c-20 -33 0 -100 31 -100 29 0 46 74 22 98 -15 15 -45 16
-53 2z"/>
<path d="M6274 1126 c-3 -8 -4 -31 -2 -52 3 -34 6 -39 28 -39 23 0 25 4 28 53
3 50 2 52 -23 52 -14 0 -28 -6 -31 -14z"/>
<path d="M8921 1126 c-17 -21 -10 -77 12 -90 25 -15 49 18 45 64 -2 27 -8 36
-24 38 -11 2 -26 -4 -33 -12z"/>
<path d="M8950 980 l-355 -5 -3 -32 c-3 -31 -1 -33 27 -33 69 0 111 -40 97
-94 -6 -23 -11 -26 -51 -26 -35 0 -45 -4 -50 -20 -9 -27 2 -58 26 -70 10 -6
28 -28 39 -49 21 -42 36 -51 80 -51 20 0 31 6 35 20 9 27 0 38 -38 48 -22 6
-33 15 -35 30 -2 14 2 22 11 22 8 0 22 9 31 19 21 23 34 125 17 135 -21 13
-11 25 25 32 20 4 46 2 60 -5 22 -10 25 -17 22 -53 -3 -39 -6 -43 -36 -49 -18
-4 -35 -9 -38 -12 -13 -13 9 -45 39 -58 30 -13 32 -17 35 -71 3 -56 4 -58 31
-58 37 0 41 14 41 173 l0 128 57 -3 c52 -3 59 -6 76 -35 27 -47 11 -71 -51
-75 -44 -3 -47 -5 -50 -33 -3 -19 2 -33 13 -42 10 -6 32 -33 49 -60 25 -39 38
-49 71 -55 32 -7 42 -5 52 9 20 26 16 42 -14 54 -49 19 -58 26 -61 43 -2 9 3
16 11 16 7 0 24 11 37 25 21 23 25 24 41 9 9 -8 30 -19 45 -23 16 -4 34 -18
41 -32 28 -56 105 -79 145 -43 16 16 18 15 24 -2 14 -45 45 -76 61 -60 4 4 11
73 15 154 3 81 7 148 7 150 1 1 12 2 25 2 24 0 24 -1 28 -134 4 -138 12 -166
48 -166 14 0 18 13 23 68 4 37 7 104 7 150 l0 83 128 -3 c121 -3 127 -4 130
-24 4 -28 -19 -34 -126 -34 l-83 0 -16 -37 c-29 -70 -2 -145 55 -156 63 -12
112 34 112 104 0 17 6 32 15 35 30 12 42 -14 47 -101 2 -47 7 -88 11 -91 3 -4
17 1 31 9 24 16 25 21 28 151 2 113 6 137 21 154 32 35 18 56 -38 64 -76 10
-453 8 -515 -3 -77 -14 -81 -13 -120 2 -28 11 -101 13 -390 9z m378 -121 c-4
-40 -29 -56 -102 -61 l-49 -3 -13 50 c-7 28 -13 51 -14 53 0 1 16 2 36 2 26 0
43 -7 60 -25 26 -28 43 -32 49 -10 3 8 7 23 10 32 9 28 27 -1 23 -38z m122
-28 c0 -87 -15 -115 -61 -119 -22 -2 -40 2 -48 12 -10 12 -6 20 23 47 32 28
36 38 36 80 0 47 11 61 38 51 8 -3 12 -26 12 -71z m348 -89 c2 -22 -2 -34 -12
-38 -22 -8 -46 13 -46 41 0 28 9 37 35 33 15 -2 21 -12 23 -36z"/>
<path d="M5838 973 c-47 -5 -68 -35 -44 -62 13 -14 16 -41 16 -127 0 -209 50
-288 161 -255 34 10 39 16 39 42 0 33 -22 48 -45 29 -21 -18 -58 -8 -72 20
-13 26 -18 215 -7 258 5 17 14 22 40 22 l34 0 0 -89 c0 -53 -4 -93 -11 -96 -7
-5 -4 -14 7 -26 43 -47 65 -9 67 115 l2 91 108 3 c108 3 108 3 105 -20 -3 -21
-7 -23 -59 -20 -48 3 -60 0 -85 -21 -25 -22 -29 -32 -29 -77 0 -46 4 -55 34
-82 31 -27 39 -30 82 -25 45 6 49 4 61 -21 15 -30 46 -41 59 -20 5 7 9 73 9
146 0 126 1 135 23 152 33 28 13 53 -49 62 -52 7 -382 7 -446 1z m392 -194
c18 -32 -11 -69 -53 -69 -40 0 -57 15 -57 50 0 36 6 40 56 40 34 0 46 -5 54
-21z"/>
<path d="M10047 672 c-21 -23 -22 -46 -2 -62 18 -15 19 -42 3 -58 -9 -9 -7
-13 7 -18 26 -10 48 8 64 52 12 34 12 44 0 70 -17 35 -49 42 -72 16z"/>
</g>
</svg>
